<mxfile host="app.diagrams.net" modified="2023-10-16T02:15:22.037Z" agent="Mozilla/5.0 (Windows NT 10.0; Win64; x64; rv:109.0) Gecko/20100101 Firefox/118.0" etag="N1Rrly6iAh--TLdtJkOS" version="22.0.4" type="github" pages="2">
  <diagram id="C5RBs43oDa-KdzZeNtuy" name="Page-1">
    <mxGraphModel dx="794" dy="422" grid="1" gridSize="10" guides="1" tooltips="1" connect="1" arrows="1" fold="1" page="1" pageScale="1" pageWidth="827" pageHeight="1169" math="0" shadow="0">
      <root>
        <mxCell id="WIyWlLk6GJQsqaUBKTNV-0" />
        <mxCell id="WIyWlLk6GJQsqaUBKTNV-1" parent="WIyWlLk6GJQsqaUBKTNV-0" />
        <mxCell id="lDPYowtdz0eG8YQGqkxI-13" value="" style="edgeStyle=orthogonalEdgeStyle;rounded=0;orthogonalLoop=1;jettySize=auto;html=1;" edge="1" parent="WIyWlLk6GJQsqaUBKTNV-1" source="lDPYowtdz0eG8YQGqkxI-2" target="lDPYowtdz0eG8YQGqkxI-10">
          <mxGeometry relative="1" as="geometry" />
        </mxCell>
        <mxCell id="lDPYowtdz0eG8YQGqkxI-2" value="mulai" style="ellipse;whiteSpace=wrap;html=1;" vertex="1" parent="WIyWlLk6GJQsqaUBKTNV-1">
          <mxGeometry x="350" y="40" width="100" height="50" as="geometry" />
        </mxCell>
        <mxCell id="lDPYowtdz0eG8YQGqkxI-17" value="" style="edgeStyle=orthogonalEdgeStyle;rounded=0;orthogonalLoop=1;jettySize=auto;html=1;" edge="1" parent="WIyWlLk6GJQsqaUBKTNV-1" target="lDPYowtdz0eG8YQGqkxI-9">
          <mxGeometry relative="1" as="geometry">
            <mxPoint x="400" y="490" as="sourcePoint" />
          </mxGeometry>
        </mxCell>
        <mxCell id="lDPYowtdz0eG8YQGqkxI-9" value="selesai" style="rounded=1;whiteSpace=wrap;html=1;" vertex="1" parent="WIyWlLk6GJQsqaUBKTNV-1">
          <mxGeometry x="365" y="550" width="70" height="30" as="geometry" />
        </mxCell>
        <mxCell id="lDPYowtdz0eG8YQGqkxI-14" value="" style="edgeStyle=orthogonalEdgeStyle;rounded=0;orthogonalLoop=1;jettySize=auto;html=1;" edge="1" parent="WIyWlLk6GJQsqaUBKTNV-1" source="lDPYowtdz0eG8YQGqkxI-10" target="lDPYowtdz0eG8YQGqkxI-12">
          <mxGeometry relative="1" as="geometry" />
        </mxCell>
        <mxCell id="lDPYowtdz0eG8YQGqkxI-10" value="masukan bilangan&lt;br&gt;bulat" style="shape=parallelogram;perimeter=parallelogramPerimeter;whiteSpace=wrap;html=1;fixedSize=1;" vertex="1" parent="WIyWlLk6GJQsqaUBKTNV-1">
          <mxGeometry x="330" y="120" width="140" height="50" as="geometry" />
        </mxCell>
        <mxCell id="lDPYowtdz0eG8YQGqkxI-15" value="" style="edgeStyle=orthogonalEdgeStyle;rounded=0;orthogonalLoop=1;jettySize=auto;html=1;" edge="1" parent="WIyWlLk6GJQsqaUBKTNV-1" source="lDPYowtdz0eG8YQGqkxI-12">
          <mxGeometry relative="1" as="geometry">
            <mxPoint x="400" y="310" as="targetPoint" />
          </mxGeometry>
        </mxCell>
        <mxCell id="lDPYowtdz0eG8YQGqkxI-12" value="bilangan dibagi 2 dengan operasi sisa bagi" style="rounded=1;whiteSpace=wrap;html=1;" vertex="1" parent="WIyWlLk6GJQsqaUBKTNV-1">
          <mxGeometry x="335" y="210" width="130" height="70" as="geometry" />
        </mxCell>
        <mxCell id="lDPYowtdz0eG8YQGqkxI-27" value="" style="edgeStyle=orthogonalEdgeStyle;rounded=0;orthogonalLoop=1;jettySize=auto;html=1;" edge="1" parent="WIyWlLk6GJQsqaUBKTNV-1" source="lDPYowtdz0eG8YQGqkxI-26">
          <mxGeometry relative="1" as="geometry">
            <mxPoint x="400" y="450" as="targetPoint" />
          </mxGeometry>
        </mxCell>
        <mxCell id="lDPYowtdz0eG8YQGqkxI-33" value="" style="edgeStyle=orthogonalEdgeStyle;rounded=0;orthogonalLoop=1;jettySize=auto;html=1;" edge="1" parent="WIyWlLk6GJQsqaUBKTNV-1" source="lDPYowtdz0eG8YQGqkxI-26" target="lDPYowtdz0eG8YQGqkxI-30">
          <mxGeometry relative="1" as="geometry" />
        </mxCell>
        <mxCell id="lDPYowtdz0eG8YQGqkxI-26" value="? sisa&lt;br&gt;Bagi = 0" style="rhombus;whiteSpace=wrap;html=1;" vertex="1" parent="WIyWlLk6GJQsqaUBKTNV-1">
          <mxGeometry x="340" y="310" width="120" height="100" as="geometry" />
        </mxCell>
        <mxCell id="lDPYowtdz0eG8YQGqkxI-30" value="Genab" style="shape=parallelogram;perimeter=parallelogramPerimeter;whiteSpace=wrap;html=1;fixedSize=1;" vertex="1" parent="WIyWlLk6GJQsqaUBKTNV-1">
          <mxGeometry x="530" y="340" width="100" height="40" as="geometry" />
        </mxCell>
        <mxCell id="lDPYowtdz0eG8YQGqkxI-31" value="Ganjil" style="shape=parallelogram;perimeter=parallelogramPerimeter;whiteSpace=wrap;html=1;fixedSize=1;" vertex="1" parent="WIyWlLk6GJQsqaUBKTNV-1">
          <mxGeometry x="350" y="450" width="100" height="40" as="geometry" />
        </mxCell>
        <mxCell id="lDPYowtdz0eG8YQGqkxI-36" value="" style="endArrow=classic;html=1;rounded=0;exitX=1;exitY=0.5;exitDx=0;exitDy=0;" edge="1" parent="WIyWlLk6GJQsqaUBKTNV-1" source="lDPYowtdz0eG8YQGqkxI-30">
          <mxGeometry width="50" height="50" relative="1" as="geometry">
            <mxPoint x="670" y="360" as="sourcePoint" />
            <mxPoint x="400" y="520" as="targetPoint" />
            <Array as="points">
              <mxPoint x="680" y="360" />
              <mxPoint x="680" y="440" />
              <mxPoint x="680" y="520" />
            </Array>
          </mxGeometry>
        </mxCell>
      </root>
    </mxGraphModel>
  </diagram>
  <diagram id="6zYjZkRhCRD3R-HWqNw0" name="Side-2">
    <mxGraphModel dx="794" dy="422" grid="1" gridSize="10" guides="1" tooltips="1" connect="1" arrows="1" fold="1" page="1" pageScale="1" pageWidth="850" pageHeight="1100" math="0" shadow="0">
      <root>
        <mxCell id="0" />
        <mxCell id="1" parent="0" />
        <mxCell id="Nd0fq5BCQq5WYaQZYXZZ-1" value="" style="ellipse;whiteSpace=wrap;html=1;" vertex="1" parent="1">
          <mxGeometry x="350" y="40" width="120" height="80" as="geometry" />
        </mxCell>
        <mxCell id="Nd0fq5BCQq5WYaQZYXZZ-2" value="" style="whiteSpace=wrap;html=1;aspect=fixed;" vertex="1" parent="1">
          <mxGeometry x="370" y="160" width="80" height="80" as="geometry" />
        </mxCell>
        <mxCell id="Nd0fq5BCQq5WYaQZYXZZ-3" value="" style="rounded=1;whiteSpace=wrap;html=1;" vertex="1" parent="1">
          <mxGeometry x="350" y="290" width="120" height="60" as="geometry" />
        </mxCell>
        <mxCell id="yiwgs0FTDtCBKrz6atYP-1" value="" style="rounded=1;whiteSpace=wrap;html=1;" vertex="1" parent="1">
          <mxGeometry x="315" y="410" width="190" height="60" as="geometry" />
        </mxCell>
      </root>
    </mxGraphModel>
  </diagram>
</mxfile>
